<svg id="visual" viewBox="0 0 900 600" width="900" height="600" xmlns="http://www.w3.org/2000/svg" xmlns:xlink="http://www.w3.org/1999/xlink" version="1.1"><rect x="0" y="0" width="900" height="600" fill="#e6decd"></rect><defs><linearGradient id="grad1_0" x1="33.3%" y1="0%" x2="100%" y2="100%"><stop offset="20%" stop-color="#cdbea1" stop-opacity="1"></stop><stop offset="80%" stop-color="#cdbea1" stop-opacity="1"></stop></linearGradient></defs><defs><linearGradient id="grad1_1" x1="33.3%" y1="0%" x2="100%" y2="100%"><stop offset="20%" stop-color="#cdbea1" stop-opacity="1"></stop><stop offset="80%" stop-color="#e6decd" stop-opacity="1"></stop></linearGradient></defs><defs><linearGradient id="grad2_0" x1="0%" y1="0%" x2="66.7%" y2="100%"><stop offset="20%" stop-color="#cdbea1" stop-opacity="1"></stop><stop offset="80%" stop-color="#cdbea1" stop-opacity="1"></stop></linearGradient></defs><defs><linearGradient id="grad2_1" x1="0%" y1="0%" x2="66.7%" y2="100%"><stop offset="20%" stop-color="#e6decd" stop-opacity="1"></stop><stop offset="80%" stop-color="#cdbea1" stop-opacity="1"></stop></linearGradient></defs><g transform="translate(900, 0)"><path d="M0 486.7C-24.6 434.3 -49.1 381.8 -86.8 380.2C-124.4 378.6 -175.2 428 -204.4 424.4C-233.5 420.7 -241.1 364.2 -269.3 337.8C-297.6 311.3 -346.6 315.1 -369 294.3C-391.4 273.5 -387.2 228.1 -403.6 194.4C-420.1 160.7 -457.2 138.8 -474.5 108.3C-491.8 77.9 -489.3 38.9 -486.7 0L0 0Z" fill="#d9ceb7"></path><path d="M0 243.4C-12.3 217.1 -24.6 190.9 -43.4 190.1C-62.2 189.3 -87.6 214 -102.2 212.2C-116.8 210.4 -120.5 182.1 -134.7 168.9C-148.8 155.7 -173.3 157.6 -184.5 147.1C-195.7 136.7 -193.6 114 -201.8 97.2C-210 80.4 -228.6 69.4 -237.3 54.2C-245.9 38.9 -244.6 19.5 -243.4 0L0 0Z" fill="#cdbea1"></path></g><g transform="translate(0, 600)"><path d="M0 -486.7C37.1 -486.1 74.1 -485.5 108.3 -474.5C142.5 -463.6 173.8 -442.3 201.8 -419C229.7 -395.6 254.2 -370.2 272.5 -341.7C290.8 -313.1 302.9 -281.3 317.4 -253.1C332 -225 349 -200.5 363.1 -174.9C377.2 -149.2 388.4 -122.6 408.5 -93.2C428.6 -63.9 457.7 -32 486.7 0L0 0Z" fill="#d9ceb7"></path><path d="M0 -243.4C18.5 -243.1 37.1 -242.8 54.2 -237.3C71.3 -231.8 86.9 -221.1 100.9 -209.5C114.8 -197.8 127.1 -185.1 136.2 -170.8C145.4 -156.5 151.4 -140.6 158.7 -126.6C166 -112.5 174.5 -100.2 181.5 -87.4C188.6 -74.6 194.2 -61.3 204.2 -46.6C214.3 -32 228.8 -16 243.4 0L0 0Z" fill="#cdbea1"></path></g></svg>